<svg xmlns="http://www.w3.org/2000/svg" viewBox="0 0 512 512">
  <defs>
    <linearGradient id="bg" x1="0" y1="0" x2="1" y2="1">
      <stop offset="0%" stop-color="#0f172a"/>
      <stop offset="55%" stop-color="#162447"/>
      <stop offset="100%" stop-color="#1d3557"/>
    </linearGradient>
    <linearGradient id="gold" x1="0" y1="0" x2="1" y2="1">
      <stop offset="0%" stop-color="#f7d774"/>
      <stop offset="100%" stop-color="#d4a62a"/>
    </linearGradient>
    <filter id="shadow" x="-20%" y="-20%" width="140%" height="140%">
      <feDropShadow dx="0" dy="12" stdDeviation="10" flood-opacity="0.28"/>
    </filter>
  </defs>

  <rect x="24" y="24" width="464" height="464" rx="104" fill="url(#bg)"/>

  <g opacity="0.18">
    <circle cx="390" cy="118" r="82" fill="#8ecae6"/>
    <circle cx="120" cy="404" r="92" fill="#457b9d"/>
  </g>

  <g stroke="url(#gold)" stroke-width="12" stroke-linecap="round" fill="none" opacity="0.95">
    <path d="M88 128 H302"/>
    <path d="M88 154 H326"/>
    <path d="M88 180 H350"/>
    <path d="M88 206 H374"/>
    <path d="M88 232 H398"/>
  </g>

  <g fill="url(#gold)" opacity="0.96">
    <ellipse cx="386" cy="188" rx="18" ry="24"/>
    <ellipse cx="414" cy="162" rx="16" ry="21"/>
    <rect x="378" y="162" width="10" height="52" rx="5"/>
    <rect x="406" y="138" width="10" height="46" rx="5"/>
  </g>

  <g filter="url(#shadow)">
    <circle cx="238" cy="202" r="42" fill="#f4f7fb"/>
    <path d="M192 300
             C206 266 226 248 238 248
             C250 248 270 266 284 300
             L304 372
             C308 388 297 402 280 402
             H196
             C179 402 168 388 172 372
             Z" fill="#f4f7fb"/>

    <path d="M218 272 L238 306 L258 272" fill="#0f172a"/>
    <path d="M238 306 L238 402" stroke="#0f172a" stroke-width="12" stroke-linecap="round"/>

    <path d="M238 264
             C192 272 154 288 122 318"
          stroke="#f4f7fb" stroke-width="24" stroke-linecap="round" fill="none"/>
    <path d="M238 264
             C294 272 344 252 394 210"
          stroke="#f4f7fb" stroke-width="24" stroke-linecap="round" fill="none"/>

    <circle cx="118" cy="320" r="14" fill="#f4f7fb"/>
  </g>

  <g filter="url(#shadow)">
    <path d="M334 246 L462 118" stroke="#f4f7fb" stroke-width="10" stroke-linecap="round"/>
    <circle cx="462" cy="118" r="11" fill="url(#gold)"/>
  </g>

  <g opacity="0.92">
    <path d="M124 408
             C182 434 264 444 342 426"
          stroke="url(#gold)" stroke-width="14" stroke-linecap="round" fill="none"/>
  </g>
</svg>
